<mxfile host="Electron" agent="Mozilla/5.0 (Windows NT 10.0; Win64; x64) AppleWebKit/537.36 (KHTML, like Gecko) draw.io/24.7.8 Chrome/128.0.6613.36 Electron/32.0.1 Safari/537.36" version="24.7.8">
  <diagram id="C5RBs43oDa-KdzZeNtuy" name="Page-1">
    <mxGraphModel dx="1548" dy="894" grid="1" gridSize="10" guides="1" tooltips="1" connect="1" arrows="1" fold="1" page="1" pageScale="1" pageWidth="827" pageHeight="1169" math="0" shadow="0">
      <root>
        <mxCell id="WIyWlLk6GJQsqaUBKTNV-0" />
        <mxCell id="WIyWlLk6GJQsqaUBKTNV-1" parent="WIyWlLk6GJQsqaUBKTNV-0" />
        <mxCell id="zkfFHV4jXpPFQw0GAbJ--0" value="abstract Component&#xa;" style="swimlane;fontStyle=2;align=center;verticalAlign=top;childLayout=stackLayout;horizontal=1;startSize=26;horizontalStack=0;resizeParent=1;resizeLast=0;collapsible=1;marginBottom=0;rounded=0;shadow=0;strokeWidth=1;" parent="WIyWlLk6GJQsqaUBKTNV-1" vertex="1">
          <mxGeometry x="80" y="110" width="190" height="190" as="geometry">
            <mxRectangle x="110" y="80" width="160" height="26" as="alternateBounds" />
          </mxGeometry>
        </mxCell>
        <mxCell id="zkfFHV4jXpPFQw0GAbJ--1" value="ComponentType: public string " style="text;align=left;verticalAlign=top;spacingLeft=4;spacingRight=4;overflow=hidden;rotatable=0;points=[[0,0.5],[1,0.5]];portConstraint=eastwest;" parent="zkfFHV4jXpPFQw0GAbJ--0" vertex="1">
          <mxGeometry y="26" width="190" height="26" as="geometry" />
        </mxCell>
        <mxCell id="zkfFHV4jXpPFQw0GAbJ--2" value="Name: public string " style="text;align=left;verticalAlign=top;spacingLeft=4;spacingRight=4;overflow=hidden;rotatable=0;points=[[0,0.5],[1,0.5]];portConstraint=eastwest;rounded=0;shadow=0;html=0;" parent="zkfFHV4jXpPFQw0GAbJ--0" vertex="1">
          <mxGeometry y="52" width="190" height="26" as="geometry" />
        </mxCell>
        <mxCell id="zkfFHV4jXpPFQw0GAbJ--3" value="Cost: public int " style="text;align=left;verticalAlign=top;spacingLeft=4;spacingRight=4;overflow=hidden;rotatable=0;points=[[0,0.5],[1,0.5]];portConstraint=eastwest;rounded=0;shadow=0;html=0;" parent="zkfFHV4jXpPFQw0GAbJ--0" vertex="1">
          <mxGeometry y="78" width="190" height="26" as="geometry" />
        </mxCell>
        <mxCell id="nXkRzBK1owDwN2vWH0f_-6" value="ConnectionType: public string " style="text;align=left;verticalAlign=top;spacingLeft=4;spacingRight=4;overflow=hidden;rotatable=0;points=[[0,0.5],[1,0.5]];portConstraint=eastwest;rounded=0;shadow=0;html=0;" vertex="1" parent="zkfFHV4jXpPFQw0GAbJ--0">
          <mxGeometry y="104" width="190" height="26" as="geometry" />
        </mxCell>
        <mxCell id="nXkRzBK1owDwN2vWH0f_-7" value="Manufactor: public string " style="text;align=left;verticalAlign=top;spacingLeft=4;spacingRight=4;overflow=hidden;rotatable=0;points=[[0,0.5],[1,0.5]];portConstraint=eastwest;rounded=0;shadow=0;html=0;" vertex="1" parent="zkfFHV4jXpPFQw0GAbJ--0">
          <mxGeometry y="130" width="190" height="26" as="geometry" />
        </mxCell>
        <mxCell id="nXkRzBK1owDwN2vWH0f_-9" value="" style="endArrow=none;html=1;rounded=0;" edge="1" parent="zkfFHV4jXpPFQw0GAbJ--0">
          <mxGeometry width="50" height="50" relative="1" as="geometry">
            <mxPoint y="156" as="sourcePoint" />
            <mxPoint x="190" y="156" as="targetPoint" />
          </mxGeometry>
        </mxCell>
        <mxCell id="nXkRzBK1owDwN2vWH0f_-10" value="GetInfo(): " style="text;align=left;verticalAlign=top;spacingLeft=4;spacingRight=4;overflow=hidden;rotatable=0;points=[[0,0.5],[1,0.5]];portConstraint=eastwest;rounded=0;shadow=0;html=0;" vertex="1" parent="zkfFHV4jXpPFQw0GAbJ--0">
          <mxGeometry y="156" width="190" height="26" as="geometry" />
        </mxCell>
        <mxCell id="nXkRzBK1owDwN2vWH0f_-11" value="public Computer" style="swimlane;fontStyle=2;align=center;verticalAlign=top;childLayout=stackLayout;horizontal=1;startSize=26;horizontalStack=0;resizeParent=1;resizeLast=0;collapsible=1;marginBottom=0;rounded=0;shadow=0;strokeWidth=1;" vertex="1" parent="WIyWlLk6GJQsqaUBKTNV-1">
          <mxGeometry x="80" y="320" width="190" height="110" as="geometry">
            <mxRectangle x="110" y="80" width="160" height="26" as="alternateBounds" />
          </mxGeometry>
        </mxCell>
        <mxCell id="nXkRzBK1owDwN2vWH0f_-13" value="Name: public string " style="text;align=left;verticalAlign=top;spacingLeft=4;spacingRight=4;overflow=hidden;rotatable=0;points=[[0,0.5],[1,0.5]];portConstraint=eastwest;rounded=0;shadow=0;html=0;" vertex="1" parent="nXkRzBK1owDwN2vWH0f_-11">
          <mxGeometry y="26" width="190" height="26" as="geometry" />
        </mxCell>
        <mxCell id="nXkRzBK1owDwN2vWH0f_-17" value="" style="endArrow=none;html=1;rounded=0;" edge="1" parent="nXkRzBK1owDwN2vWH0f_-11">
          <mxGeometry width="50" height="50" relative="1" as="geometry">
            <mxPoint y="52" as="sourcePoint" />
            <mxPoint x="190" y="52" as="targetPoint" />
          </mxGeometry>
        </mxCell>
        <mxCell id="nXkRzBK1owDwN2vWH0f_-20" value="AddComponent: public void" style="text;align=left;verticalAlign=top;spacingLeft=4;spacingRight=4;overflow=hidden;rotatable=0;points=[[0,0.5],[1,0.5]];portConstraint=eastwest;rounded=0;shadow=0;html=0;" vertex="1" parent="nXkRzBK1owDwN2vWH0f_-11">
          <mxGeometry y="52" width="190" height="26" as="geometry" />
        </mxCell>
        <mxCell id="nXkRzBK1owDwN2vWH0f_-21" value="ShowComponents: public void" style="text;align=left;verticalAlign=top;spacingLeft=4;spacingRight=4;overflow=hidden;rotatable=0;points=[[0,0.5],[1,0.5]];portConstraint=eastwest;rounded=0;shadow=0;html=0;" vertex="1" parent="nXkRzBK1owDwN2vWH0f_-11">
          <mxGeometry y="78" width="190" height="26" as="geometry" />
        </mxCell>
        <mxCell id="nXkRzBK1owDwN2vWH0f_-22" value="public ComponentCollection" style="swimlane;fontStyle=2;align=center;verticalAlign=top;childLayout=stackLayout;horizontal=1;startSize=26;horizontalStack=0;resizeParent=1;resizeLast=0;collapsible=1;marginBottom=0;rounded=0;shadow=0;strokeWidth=1;" vertex="1" parent="WIyWlLk6GJQsqaUBKTNV-1">
          <mxGeometry x="319" y="190" width="211" height="300" as="geometry">
            <mxRectangle x="319" y="190" width="160" height="26" as="alternateBounds" />
          </mxGeometry>
        </mxCell>
        <mxCell id="nXkRzBK1owDwN2vWH0f_-23" value="Count: public int" style="text;align=left;verticalAlign=top;spacingLeft=4;spacingRight=4;overflow=hidden;rotatable=0;points=[[0,0.5],[1,0.5]];portConstraint=eastwest;" vertex="1" parent="nXkRzBK1owDwN2vWH0f_-22">
          <mxGeometry y="26" width="211" height="26" as="geometry" />
        </mxCell>
        <mxCell id="nXkRzBK1owDwN2vWH0f_-24" value="IsReadOnly: public bool" style="text;align=left;verticalAlign=top;spacingLeft=4;spacingRight=4;overflow=hidden;rotatable=0;points=[[0,0.5],[1,0.5]];portConstraint=eastwest;rounded=0;shadow=0;html=0;" vertex="1" parent="nXkRzBK1owDwN2vWH0f_-22">
          <mxGeometry y="52" width="211" height="26" as="geometry" />
        </mxCell>
        <mxCell id="nXkRzBK1owDwN2vWH0f_-28" value="" style="endArrow=none;html=1;rounded=0;entryX=1.001;entryY=0.038;entryDx=0;entryDy=0;entryPerimeter=0;" edge="1" parent="nXkRzBK1owDwN2vWH0f_-22" target="nXkRzBK1owDwN2vWH0f_-30">
          <mxGeometry width="50" height="50" relative="1" as="geometry">
            <mxPoint y="78" as="sourcePoint" />
            <mxPoint x="190" y="78" as="targetPoint" />
          </mxGeometry>
        </mxCell>
        <mxCell id="nXkRzBK1owDwN2vWH0f_-30" value="Add(): public void" style="text;align=left;verticalAlign=top;spacingLeft=4;spacingRight=4;overflow=hidden;rotatable=0;points=[[0,0.5],[1,0.5]];portConstraint=eastwest;rounded=0;shadow=0;html=0;" vertex="1" parent="nXkRzBK1owDwN2vWH0f_-22">
          <mxGeometry y="78" width="211" height="26" as="geometry" />
        </mxCell>
        <mxCell id="nXkRzBK1owDwN2vWH0f_-31" value="Clear(): public void" style="text;align=left;verticalAlign=top;spacingLeft=4;spacingRight=4;overflow=hidden;rotatable=0;points=[[0,0.5],[1,0.5]];portConstraint=eastwest;rounded=0;shadow=0;html=0;" vertex="1" parent="nXkRzBK1owDwN2vWH0f_-22">
          <mxGeometry y="104" width="211" height="26" as="geometry" />
        </mxCell>
        <mxCell id="nXkRzBK1owDwN2vWH0f_-32" value="Contains(): public void" style="text;align=left;verticalAlign=top;spacingLeft=4;spacingRight=4;overflow=hidden;rotatable=0;points=[[0,0.5],[1,0.5]];portConstraint=eastwest;rounded=0;shadow=0;html=0;" vertex="1" parent="nXkRzBK1owDwN2vWH0f_-22">
          <mxGeometry y="130" width="211" height="26" as="geometry" />
        </mxCell>
        <mxCell id="nXkRzBK1owDwN2vWH0f_-33" value="CopyTo(): public void" style="text;align=left;verticalAlign=top;spacingLeft=4;spacingRight=4;overflow=hidden;rotatable=0;points=[[0,0.5],[1,0.5]];portConstraint=eastwest;rounded=0;shadow=0;html=0;" vertex="1" parent="nXkRzBK1owDwN2vWH0f_-22">
          <mxGeometry y="156" width="211" height="26" as="geometry" />
        </mxCell>
        <mxCell id="nXkRzBK1owDwN2vWH0f_-34" value="Remove(): public void" style="text;align=left;verticalAlign=top;spacingLeft=4;spacingRight=4;overflow=hidden;rotatable=0;points=[[0,0.5],[1,0.5]];portConstraint=eastwest;rounded=0;shadow=0;html=0;" vertex="1" parent="nXkRzBK1owDwN2vWH0f_-22">
          <mxGeometry y="182" width="211" height="26" as="geometry" />
        </mxCell>
        <mxCell id="nXkRzBK1owDwN2vWH0f_-35" value="GetEnumerator(): public IEnumerator" style="text;align=left;verticalAlign=top;spacingLeft=4;spacingRight=4;overflow=hidden;rotatable=0;points=[[0,0.5],[1,0.5]];portConstraint=eastwest;rounded=0;shadow=0;html=0;" vertex="1" parent="nXkRzBK1owDwN2vWH0f_-22">
          <mxGeometry y="208" width="211" height="26" as="geometry" />
        </mxCell>
        <mxCell id="nXkRzBK1owDwN2vWH0f_-36" value="SortComponents(): public void" style="text;align=left;verticalAlign=top;spacingLeft=4;spacingRight=4;overflow=hidden;rotatable=0;points=[[0,0.5],[1,0.5]];portConstraint=eastwest;rounded=0;shadow=0;html=0;" vertex="1" parent="nXkRzBK1owDwN2vWH0f_-22">
          <mxGeometry y="234" width="211" height="26" as="geometry" />
        </mxCell>
        <mxCell id="nXkRzBK1owDwN2vWH0f_-37" value="ForEachComponent(): public void" style="text;align=left;verticalAlign=top;spacingLeft=4;spacingRight=4;overflow=hidden;rotatable=0;points=[[0,0.5],[1,0.5]];portConstraint=eastwest;rounded=0;shadow=0;html=0;" vertex="1" parent="nXkRzBK1owDwN2vWH0f_-22">
          <mxGeometry y="260" width="211" height="40" as="geometry" />
        </mxCell>
        <mxCell id="nXkRzBK1owDwN2vWH0f_-38" value="public ComponentsBank" style="swimlane;fontStyle=2;align=center;verticalAlign=top;childLayout=stackLayout;horizontal=1;startSize=26;horizontalStack=0;resizeParent=1;resizeLast=0;collapsible=1;marginBottom=0;rounded=0;shadow=0;strokeWidth=1;" vertex="1" parent="WIyWlLk6GJQsqaUBKTNV-1">
          <mxGeometry x="560" y="190" width="390" height="160" as="geometry">
            <mxRectangle x="319" y="190" width="160" height="26" as="alternateBounds" />
          </mxGeometry>
        </mxCell>
        <mxCell id="nXkRzBK1owDwN2vWH0f_-51" value="-" style="text;align=left;verticalAlign=top;spacingLeft=4;spacingRight=4;overflow=hidden;rotatable=0;points=[[0,0.5],[1,0.5]];portConstraint=eastwest;rounded=0;shadow=0;html=0;" vertex="1" parent="nXkRzBK1owDwN2vWH0f_-38">
          <mxGeometry y="26" width="390" height="26" as="geometry" />
        </mxCell>
        <mxCell id="nXkRzBK1owDwN2vWH0f_-53" value="" style="endArrow=none;html=1;rounded=0;exitX=-0.003;exitY=-0.092;exitDx=0;exitDy=0;exitPerimeter=0;entryX=1.003;entryY=0.9;entryDx=0;entryDy=0;entryPerimeter=0;" edge="1" parent="nXkRzBK1owDwN2vWH0f_-38" source="nXkRzBK1owDwN2vWH0f_-52" target="nXkRzBK1owDwN2vWH0f_-51">
          <mxGeometry width="50" height="50" relative="1" as="geometry">
            <mxPoint x="30" y="90" as="sourcePoint" />
            <mxPoint x="80" y="40" as="targetPoint" />
          </mxGeometry>
        </mxCell>
        <mxCell id="nXkRzBK1owDwN2vWH0f_-52" value="AddComponentToBank(): public static void" style="text;align=left;verticalAlign=top;spacingLeft=4;spacingRight=4;overflow=hidden;rotatable=0;points=[[0,0.5],[1,0.5]];portConstraint=eastwest;rounded=0;shadow=0;html=0;" vertex="1" parent="nXkRzBK1owDwN2vWH0f_-38">
          <mxGeometry y="52" width="390" height="26" as="geometry" />
        </mxCell>
        <mxCell id="nXkRzBK1owDwN2vWH0f_-54" value="DisplayAvailableComponents(): public static void" style="text;align=left;verticalAlign=top;spacingLeft=4;spacingRight=4;overflow=hidden;rotatable=0;points=[[0,0.5],[1,0.5]];portConstraint=eastwest;rounded=0;shadow=0;html=0;" vertex="1" parent="nXkRzBK1owDwN2vWH0f_-38">
          <mxGeometry y="78" width="390" height="26" as="geometry" />
        </mxCell>
        <mxCell id="nXkRzBK1owDwN2vWH0f_-55" value="GetComponentsByType(): public static List&lt;Component&gt;" style="text;align=left;verticalAlign=top;spacingLeft=4;spacingRight=4;overflow=hidden;rotatable=0;points=[[0,0.5],[1,0.5]];portConstraint=eastwest;rounded=0;shadow=0;html=0;" vertex="1" parent="nXkRzBK1owDwN2vWH0f_-38">
          <mxGeometry y="104" width="390" height="26" as="geometry" />
        </mxCell>
        <mxCell id="nXkRzBK1owDwN2vWH0f_-56" value="GetAllComponents(): public static ComponentCollection&lt;Component&gt;" style="text;align=left;verticalAlign=top;spacingLeft=4;spacingRight=4;overflow=hidden;rotatable=0;points=[[0,0.5],[1,0.5]];portConstraint=eastwest;rounded=0;shadow=0;html=0;" vertex="1" parent="nXkRzBK1owDwN2vWH0f_-38">
          <mxGeometry y="130" width="390" height="26" as="geometry" />
        </mxCell>
        <mxCell id="nXkRzBK1owDwN2vWH0f_-57" value="public LiquidCooling" style="swimlane;fontStyle=2;align=center;verticalAlign=top;childLayout=stackLayout;horizontal=1;startSize=26;horizontalStack=0;resizeParent=1;resizeLast=0;collapsible=1;marginBottom=0;rounded=0;shadow=0;strokeWidth=1;" vertex="1" parent="WIyWlLk6GJQsqaUBKTNV-1">
          <mxGeometry x="600" y="370" width="190" height="80" as="geometry">
            <mxRectangle x="110" y="80" width="160" height="26" as="alternateBounds" />
          </mxGeometry>
        </mxCell>
        <mxCell id="nXkRzBK1owDwN2vWH0f_-58" value="RadiatorSize: public int" style="text;align=left;verticalAlign=top;spacingLeft=4;spacingRight=4;overflow=hidden;rotatable=0;points=[[0,0.5],[1,0.5]];portConstraint=eastwest;rounded=0;shadow=0;html=0;" vertex="1" parent="nXkRzBK1owDwN2vWH0f_-57">
          <mxGeometry y="26" width="190" height="26" as="geometry" />
        </mxCell>
        <mxCell id="nXkRzBK1owDwN2vWH0f_-59" value="" style="endArrow=none;html=1;rounded=0;" edge="1" parent="nXkRzBK1owDwN2vWH0f_-57">
          <mxGeometry width="50" height="50" relative="1" as="geometry">
            <mxPoint y="52" as="sourcePoint" />
            <mxPoint x="190" y="52" as="targetPoint" />
          </mxGeometry>
        </mxCell>
        <mxCell id="nXkRzBK1owDwN2vWH0f_-60" value="GetInfo(): public override string" style="text;align=left;verticalAlign=top;spacingLeft=4;spacingRight=4;overflow=hidden;rotatable=0;points=[[0,0.5],[1,0.5]];portConstraint=eastwest;rounded=0;shadow=0;html=0;" vertex="1" parent="nXkRzBK1owDwN2vWH0f_-57">
          <mxGeometry y="52" width="190" height="26" as="geometry" />
        </mxCell>
        <mxCell id="nXkRzBK1owDwN2vWH0f_-62" value="public AirCooling" style="swimlane;fontStyle=2;align=center;verticalAlign=top;childLayout=stackLayout;horizontal=1;startSize=26;horizontalStack=0;resizeParent=1;resizeLast=0;collapsible=1;marginBottom=0;rounded=0;shadow=0;strokeWidth=1;" vertex="1" parent="WIyWlLk6GJQsqaUBKTNV-1">
          <mxGeometry x="810" y="370" width="190" height="80" as="geometry">
            <mxRectangle x="110" y="80" width="160" height="26" as="alternateBounds" />
          </mxGeometry>
        </mxCell>
        <mxCell id="nXkRzBK1owDwN2vWH0f_-63" value="FanSize: public int" style="text;align=left;verticalAlign=top;spacingLeft=4;spacingRight=4;overflow=hidden;rotatable=0;points=[[0,0.5],[1,0.5]];portConstraint=eastwest;rounded=0;shadow=0;html=0;" vertex="1" parent="nXkRzBK1owDwN2vWH0f_-62">
          <mxGeometry y="26" width="190" height="26" as="geometry" />
        </mxCell>
        <mxCell id="nXkRzBK1owDwN2vWH0f_-64" value="" style="endArrow=none;html=1;rounded=0;" edge="1" parent="nXkRzBK1owDwN2vWH0f_-62">
          <mxGeometry width="50" height="50" relative="1" as="geometry">
            <mxPoint y="52" as="sourcePoint" />
            <mxPoint x="190" y="52" as="targetPoint" />
          </mxGeometry>
        </mxCell>
        <mxCell id="nXkRzBK1owDwN2vWH0f_-65" value="GetInfo(): public override string" style="text;align=left;verticalAlign=top;spacingLeft=4;spacingRight=4;overflow=hidden;rotatable=0;points=[[0,0.5],[1,0.5]];portConstraint=eastwest;rounded=0;shadow=0;html=0;" vertex="1" parent="nXkRzBK1owDwN2vWH0f_-62">
          <mxGeometry y="52" width="190" height="26" as="geometry" />
        </mxCell>
        <mxCell id="nXkRzBK1owDwN2vWH0f_-66" value="public HDD" style="swimlane;fontStyle=2;align=center;verticalAlign=top;childLayout=stackLayout;horizontal=1;startSize=26;horizontalStack=0;resizeParent=1;resizeLast=0;collapsible=1;marginBottom=0;rounded=0;shadow=0;strokeWidth=1;" vertex="1" parent="WIyWlLk6GJQsqaUBKTNV-1">
          <mxGeometry x="600" y="460" width="190" height="80" as="geometry">
            <mxRectangle x="110" y="80" width="160" height="26" as="alternateBounds" />
          </mxGeometry>
        </mxCell>
        <mxCell id="nXkRzBK1owDwN2vWH0f_-67" value="RPM: public int" style="text;align=left;verticalAlign=top;spacingLeft=4;spacingRight=4;overflow=hidden;rotatable=0;points=[[0,0.5],[1,0.5]];portConstraint=eastwest;rounded=0;shadow=0;html=0;" vertex="1" parent="nXkRzBK1owDwN2vWH0f_-66">
          <mxGeometry y="26" width="190" height="26" as="geometry" />
        </mxCell>
        <mxCell id="nXkRzBK1owDwN2vWH0f_-68" value="" style="endArrow=none;html=1;rounded=0;" edge="1" parent="nXkRzBK1owDwN2vWH0f_-66">
          <mxGeometry width="50" height="50" relative="1" as="geometry">
            <mxPoint y="52" as="sourcePoint" />
            <mxPoint x="190" y="52" as="targetPoint" />
          </mxGeometry>
        </mxCell>
        <mxCell id="nXkRzBK1owDwN2vWH0f_-69" value="GetInfo(): public override string" style="text;align=left;verticalAlign=top;spacingLeft=4;spacingRight=4;overflow=hidden;rotatable=0;points=[[0,0.5],[1,0.5]];portConstraint=eastwest;rounded=0;shadow=0;html=0;" vertex="1" parent="nXkRzBK1owDwN2vWH0f_-66">
          <mxGeometry y="52" width="190" height="26" as="geometry" />
        </mxCell>
        <mxCell id="nXkRzBK1owDwN2vWH0f_-70" value="public SSD" style="swimlane;fontStyle=2;align=center;verticalAlign=top;childLayout=stackLayout;horizontal=1;startSize=26;horizontalStack=0;resizeParent=1;resizeLast=0;collapsible=1;marginBottom=0;rounded=0;shadow=0;strokeWidth=1;" vertex="1" parent="WIyWlLk6GJQsqaUBKTNV-1">
          <mxGeometry x="810" y="460" width="180" height="110" as="geometry">
            <mxRectangle x="110" y="80" width="160" height="26" as="alternateBounds" />
          </mxGeometry>
        </mxCell>
        <mxCell id="nXkRzBK1owDwN2vWH0f_-73" value="NANDType: public string" style="text;align=left;verticalAlign=top;spacingLeft=4;spacingRight=4;overflow=hidden;rotatable=0;points=[[0,0.5],[1,0.5]];portConstraint=eastwest;rounded=0;shadow=0;html=0;" vertex="1" parent="nXkRzBK1owDwN2vWH0f_-70">
          <mxGeometry y="26" width="180" height="26" as="geometry" />
        </mxCell>
        <mxCell id="nXkRzBK1owDwN2vWH0f_-74" value="SupportsNVMs: public bool" style="text;align=left;verticalAlign=top;spacingLeft=4;spacingRight=4;overflow=hidden;rotatable=0;points=[[0,0.5],[1,0.5]];portConstraint=eastwest;rounded=0;shadow=0;html=0;" vertex="1" parent="nXkRzBK1owDwN2vWH0f_-70">
          <mxGeometry y="52" width="180" height="26" as="geometry" />
        </mxCell>
        <mxCell id="nXkRzBK1owDwN2vWH0f_-75" value="" style="endArrow=none;html=1;rounded=0;entryX=-0.002;entryY=1.088;entryDx=0;entryDy=0;entryPerimeter=0;exitX=1.002;exitY=0.045;exitDx=0;exitDy=0;exitPerimeter=0;" edge="1" parent="nXkRzBK1owDwN2vWH0f_-70" source="nXkRzBK1owDwN2vWH0f_-71" target="nXkRzBK1owDwN2vWH0f_-74">
          <mxGeometry width="50" height="50" relative="1" as="geometry">
            <mxPoint x="732.92" y="458" as="sourcePoint" />
            <mxPoint x="39.99838479809971" y="50" as="targetPoint" />
          </mxGeometry>
        </mxCell>
        <mxCell id="nXkRzBK1owDwN2vWH0f_-71" value="GetInfo(): public override string" style="text;align=left;verticalAlign=top;spacingLeft=4;spacingRight=4;overflow=hidden;rotatable=0;points=[[0,0.5],[1,0.5]];portConstraint=eastwest;rounded=0;shadow=0;html=0;" vertex="1" parent="nXkRzBK1owDwN2vWH0f_-70">
          <mxGeometry y="78" width="180" height="26" as="geometry" />
        </mxCell>
        <mxCell id="nXkRzBK1owDwN2vWH0f_-76" value="public Configuration" style="swimlane;fontStyle=2;align=center;verticalAlign=top;childLayout=stackLayout;horizontal=1;startSize=26;horizontalStack=0;resizeParent=1;resizeLast=0;collapsible=1;marginBottom=0;rounded=0;shadow=0;strokeWidth=1;" vertex="1" parent="WIyWlLk6GJQsqaUBKTNV-1">
          <mxGeometry x="100" y="500" width="290" height="110" as="geometry">
            <mxRectangle x="110" y="80" width="160" height="26" as="alternateBounds" />
          </mxGeometry>
        </mxCell>
        <mxCell id="nXkRzBK1owDwN2vWH0f_-77" value="LogLevel: public string" style="text;align=left;verticalAlign=top;spacingLeft=4;spacingRight=4;overflow=hidden;rotatable=0;points=[[0,0.5],[1,0.5]];portConstraint=eastwest;" vertex="1" parent="nXkRzBK1owDwN2vWH0f_-76">
          <mxGeometry y="26" width="290" height="26" as="geometry" />
        </mxCell>
        <mxCell id="nXkRzBK1owDwN2vWH0f_-78" value="LogDirectory: public string" style="text;align=left;verticalAlign=top;spacingLeft=4;spacingRight=4;overflow=hidden;rotatable=0;points=[[0,0.5],[1,0.5]];portConstraint=eastwest;rounded=0;shadow=0;html=0;" vertex="1" parent="nXkRzBK1owDwN2vWH0f_-76">
          <mxGeometry y="52" width="290" height="26" as="geometry" />
        </mxCell>
        <mxCell id="nXkRzBK1owDwN2vWH0f_-82" value="" style="endArrow=none;html=1;rounded=0;entryX=1.001;entryY=-0.022;entryDx=0;entryDy=0;entryPerimeter=0;" edge="1" parent="nXkRzBK1owDwN2vWH0f_-76" target="nXkRzBK1owDwN2vWH0f_-83">
          <mxGeometry width="50" height="50" relative="1" as="geometry">
            <mxPoint y="78" as="sourcePoint" />
            <mxPoint x="190" y="78" as="targetPoint" />
          </mxGeometry>
        </mxCell>
        <mxCell id="nXkRzBK1owDwN2vWH0f_-83" value="LoadConfiguration(): public static Configuration" style="text;align=left;verticalAlign=top;spacingLeft=4;spacingRight=4;overflow=hidden;rotatable=0;points=[[0,0.5],[1,0.5]];portConstraint=eastwest;rounded=0;shadow=0;html=0;" vertex="1" parent="nXkRzBK1owDwN2vWH0f_-76">
          <mxGeometry y="78" width="290" height="26" as="geometry" />
        </mxCell>
        <mxCell id="nXkRzBK1owDwN2vWH0f_-84" value="public ConfigurationException" style="swimlane;fontStyle=2;align=center;verticalAlign=top;childLayout=stackLayout;horizontal=1;startSize=26;horizontalStack=0;resizeParent=1;resizeLast=0;collapsible=1;marginBottom=0;rounded=0;shadow=0;strokeWidth=1;" vertex="1" parent="WIyWlLk6GJQsqaUBKTNV-1">
          <mxGeometry x="100" y="630" width="290" height="80" as="geometry">
            <mxRectangle x="110" y="80" width="160" height="26" as="alternateBounds" />
          </mxGeometry>
        </mxCell>
        <mxCell id="nXkRzBK1owDwN2vWH0f_-88" value="-" style="text;align=left;verticalAlign=top;spacingLeft=4;spacingRight=4;overflow=hidden;rotatable=0;points=[[0,0.5],[1,0.5]];portConstraint=eastwest;rounded=0;shadow=0;html=0;" vertex="1" parent="nXkRzBK1owDwN2vWH0f_-84">
          <mxGeometry y="26" width="290" height="26" as="geometry" />
        </mxCell>
        <mxCell id="nXkRzBK1owDwN2vWH0f_-87" value="" style="endArrow=none;html=1;rounded=0;" edge="1" parent="nXkRzBK1owDwN2vWH0f_-84">
          <mxGeometry width="50" height="50" relative="1" as="geometry">
            <mxPoint y="52" as="sourcePoint" />
            <mxPoint x="290" y="52" as="targetPoint" />
          </mxGeometry>
        </mxCell>
        <mxCell id="nXkRzBK1owDwN2vWH0f_-90" value="ConfigurateException(): public" style="text;align=left;verticalAlign=top;spacingLeft=4;spacingRight=4;overflow=hidden;rotatable=0;points=[[0,0.5],[1,0.5]];portConstraint=eastwest;rounded=0;shadow=0;html=0;" vertex="1" parent="nXkRzBK1owDwN2vWH0f_-84">
          <mxGeometry y="52" width="290" height="26" as="geometry" />
        </mxCell>
        <mxCell id="nXkRzBK1owDwN2vWH0f_-91" value="public Logger&lt;T&gt;" style="swimlane;fontStyle=2;align=center;verticalAlign=top;childLayout=stackLayout;horizontal=1;startSize=26;horizontalStack=0;resizeParent=1;resizeLast=0;collapsible=1;marginBottom=0;rounded=0;shadow=0;strokeWidth=1;" vertex="1" parent="WIyWlLk6GJQsqaUBKTNV-1">
          <mxGeometry x="430" y="615" width="220" height="85" as="geometry">
            <mxRectangle x="110" y="80" width="160" height="26" as="alternateBounds" />
          </mxGeometry>
        </mxCell>
        <mxCell id="nXkRzBK1owDwN2vWH0f_-92" value="LogEvent: public event Action&lt;string&gt;" style="text;align=left;verticalAlign=top;spacingLeft=4;spacingRight=4;overflow=hidden;rotatable=0;points=[[0,0.5],[1,0.5]];portConstraint=eastwest;rounded=0;shadow=0;html=0;" vertex="1" parent="nXkRzBK1owDwN2vWH0f_-91">
          <mxGeometry y="26" width="220" height="26" as="geometry" />
        </mxCell>
        <mxCell id="nXkRzBK1owDwN2vWH0f_-93" value="" style="endArrow=none;html=1;rounded=0;entryX=0.999;entryY=-0.002;entryDx=0;entryDy=0;entryPerimeter=0;" edge="1" parent="nXkRzBK1owDwN2vWH0f_-91" target="nXkRzBK1owDwN2vWH0f_-94">
          <mxGeometry width="50" height="50" relative="1" as="geometry">
            <mxPoint y="52" as="sourcePoint" />
            <mxPoint x="190" y="52" as="targetPoint" />
          </mxGeometry>
        </mxCell>
        <mxCell id="nXkRzBK1owDwN2vWH0f_-94" value="Log(): public void" style="text;align=left;verticalAlign=top;spacingLeft=4;spacingRight=4;overflow=hidden;rotatable=0;points=[[0,0.5],[1,0.5]];portConstraint=eastwest;rounded=0;shadow=0;html=0;" vertex="1" parent="nXkRzBK1owDwN2vWH0f_-91">
          <mxGeometry y="52" width="220" height="26" as="geometry" />
        </mxCell>
        <mxCell id="nXkRzBK1owDwN2vWH0f_-96" value="public FileLogger" style="swimlane;fontStyle=2;align=center;verticalAlign=top;childLayout=stackLayout;horizontal=1;startSize=26;horizontalStack=0;resizeParent=1;resizeLast=0;collapsible=1;marginBottom=0;rounded=0;shadow=0;strokeWidth=1;" vertex="1" parent="WIyWlLk6GJQsqaUBKTNV-1">
          <mxGeometry x="660" y="615" width="220" height="105" as="geometry">
            <mxRectangle x="110" y="80" width="160" height="26" as="alternateBounds" />
          </mxGeometry>
        </mxCell>
        <mxCell id="nXkRzBK1owDwN2vWH0f_-97" value="_filePath: private string" style="text;align=left;verticalAlign=top;spacingLeft=4;spacingRight=4;overflow=hidden;rotatable=0;points=[[0,0.5],[1,0.5]];portConstraint=eastwest;rounded=0;shadow=0;html=0;" vertex="1" parent="nXkRzBK1owDwN2vWH0f_-96">
          <mxGeometry y="26" width="220" height="26" as="geometry" />
        </mxCell>
        <mxCell id="nXkRzBK1owDwN2vWH0f_-98" value="" style="endArrow=none;html=1;rounded=0;entryX=0.999;entryY=-0.002;entryDx=0;entryDy=0;entryPerimeter=0;" edge="1" parent="nXkRzBK1owDwN2vWH0f_-96" target="nXkRzBK1owDwN2vWH0f_-99">
          <mxGeometry width="50" height="50" relative="1" as="geometry">
            <mxPoint y="52" as="sourcePoint" />
            <mxPoint x="190" y="52" as="targetPoint" />
          </mxGeometry>
        </mxCell>
        <mxCell id="nXkRzBK1owDwN2vWH0f_-99" value="FileLogger(): public" style="text;align=left;verticalAlign=top;spacingLeft=4;spacingRight=4;overflow=hidden;rotatable=0;points=[[0,0.5],[1,0.5]];portConstraint=eastwest;rounded=0;shadow=0;html=0;" vertex="1" parent="nXkRzBK1owDwN2vWH0f_-96">
          <mxGeometry y="52" width="220" height="26" as="geometry" />
        </mxCell>
        <mxCell id="nXkRzBK1owDwN2vWH0f_-100" value="PrintToFile(): public void" style="text;align=left;verticalAlign=top;spacingLeft=4;spacingRight=4;overflow=hidden;rotatable=0;points=[[0,0.5],[1,0.5]];portConstraint=eastwest;rounded=0;shadow=0;html=0;" vertex="1" parent="nXkRzBK1owDwN2vWH0f_-96">
          <mxGeometry y="78" width="220" height="26" as="geometry" />
        </mxCell>
        <mxCell id="nXkRzBK1owDwN2vWH0f_-101" value="public ConsoleLogger" style="swimlane;fontStyle=2;align=center;verticalAlign=top;childLayout=stackLayout;horizontal=1;startSize=26;horizontalStack=0;resizeParent=1;resizeLast=0;collapsible=1;marginBottom=0;rounded=0;shadow=0;strokeWidth=1;" vertex="1" parent="WIyWlLk6GJQsqaUBKTNV-1">
          <mxGeometry x="430" y="720" width="220" height="85" as="geometry">
            <mxRectangle x="110" y="80" width="160" height="26" as="alternateBounds" />
          </mxGeometry>
        </mxCell>
        <mxCell id="nXkRzBK1owDwN2vWH0f_-102" value="-" style="text;align=left;verticalAlign=top;spacingLeft=4;spacingRight=4;overflow=hidden;rotatable=0;points=[[0,0.5],[1,0.5]];portConstraint=eastwest;rounded=0;shadow=0;html=0;" vertex="1" parent="nXkRzBK1owDwN2vWH0f_-101">
          <mxGeometry y="26" width="220" height="26" as="geometry" />
        </mxCell>
        <mxCell id="nXkRzBK1owDwN2vWH0f_-103" value="" style="endArrow=none;html=1;rounded=0;entryX=0.999;entryY=-0.002;entryDx=0;entryDy=0;entryPerimeter=0;" edge="1" parent="nXkRzBK1owDwN2vWH0f_-101" target="nXkRzBK1owDwN2vWH0f_-104">
          <mxGeometry width="50" height="50" relative="1" as="geometry">
            <mxPoint y="52" as="sourcePoint" />
            <mxPoint x="190" y="52" as="targetPoint" />
          </mxGeometry>
        </mxCell>
        <mxCell id="nXkRzBK1owDwN2vWH0f_-104" value="PrintToConsole(): public void" style="text;align=left;verticalAlign=top;spacingLeft=4;spacingRight=4;overflow=hidden;rotatable=0;points=[[0,0.5],[1,0.5]];portConstraint=eastwest;rounded=0;shadow=0;html=0;" vertex="1" parent="nXkRzBK1owDwN2vWH0f_-101">
          <mxGeometry y="52" width="220" height="26" as="geometry" />
        </mxCell>
      </root>
    </mxGraphModel>
  </diagram>
</mxfile>
